<svg width="120" height="121.5" viewBox="0 0 1000 931" fill="none" xmlns="http://www.w3.org/2000/svg">
<path d="M85 326.577C85 152.055 226.478 10.5765 401 10.5765H598.543C773.065 10.5765 914.543 152.055 914.543 326.576V524.12C914.543 698.642 773.065 840.12 598.543 840.12H401C226.478 840.12 85 698.642 85 524.12V326.577Z" fill="url(#paint0_linear_2047_34)"/>
<path d="M193.859 94.8169C198.794 91.0966 183.375 104.693 194.012 96.1088C191.944 98.0585 189.89 100.051 187.878 102.056C187.136 102.321 186.382 102.602 185.64 102.873C188.322 100.144 191.059 97.4592 193.858 94.8157C193.858 94.8161 193.858 94.8165 193.859 94.8169ZM195.166 88.3353C193.046 91.3338 184.909 99.0581 194.487 91.5728C195.003 90.7007 195.543 89.815 196.07 88.9465C199.421 86.3666 202.84 83.8394 206.28 81.4001C207.391 80.3629 208.509 79.3344 209.637 78.3136C211.492 77.5563 213.339 76.8274 215.198 76.1092C213.785 77.0661 212.357 78.0501 210.958 79.0315C205.892 83.5156 201.306 87.3746 194.519 93.5052C195.204 93.0673 195.89 92.63 196.577 92.1978C192.951 95.0903 189.385 98.0639 185.895 101.106C188.643 98.1678 191.792 94.9476 194.453 92.3268C189.39 95.6178 182.059 103.258 178.383 107.322C173.362 112.851 174.243 111.361 170.607 115.547C170.031 116.219 170.2 116.509 169.037 117.811C163.081 124.304 152.355 137.666 158.011 129.352C167.257 118.141 175.28 108.604 185.782 98.9036C182.469 100.911 187.613 95.3803 195.166 88.3353ZM89.4391 325.129C88.9513 320.694 89.3835 311.819 90.1261 305.753C90.1265 305.746 90.127 305.739 90.1274 305.732C90.2848 304.402 91.1133 301.441 90.7967 305.776C90.3188 312.876 89.2649 316.21 89.8538 319.963C89.6977 321.626 89.5672 323.378 89.4391 325.129ZM89.5271 340.746C89.2912 345.157 88.5331 343.156 88.7279 337.633C88.7273 337.633 88.7267 337.633 88.7261 337.633C88.8072 335.328 89.4086 339.853 88.7916 331.587C89.2557 329.901 89.6767 328.242 90.1235 326.577C90.1243 326.574 90.1252 326.571 90.126 326.568C90.126 326.571 90.126 326.574 90.126 326.577C90.1384 328.597 90.155 330.441 90.1661 332.561C89.3936 331.132 89.7606 336.336 89.5271 340.746ZM153.734 135.376C153.812 136.305 155.54 134.006 158.936 130.48C156.03 134.048 153.198 137.684 150.462 141.361C151.531 139.352 152.615 137.367 153.734 135.376ZM233.461 62.5526C233.467 62.5488 233.473 62.5451 233.479 62.5414C234.705 61.6483 235.943 60.7612 237.168 59.8966C238.049 59.599 238.922 59.3091 239.801 59.0207C244.26 56.0856 248.839 53.2421 253.459 50.5352C253.18 51.3748 244.715 55.9328 240.458 59.0799C233.652 62.9876 230.32 64.8149 229.586 64.629C230.869 63.9304 232.154 63.2438 233.461 62.5526ZM687.574 826.007C689.214 825.207 690.815 824.403 692.438 823.575C690.12 824.157 687.834 824.736 685.481 825.25C679.79 828.226 678.881 827.3 670.924 829.318C646.324 834.841 653.062 835.62 630.072 835.487C648.289 833.522 641.077 832.946 651.751 830.169C654.152 830.602 643.662 834.21 651.044 833.376C663.478 830.376 675.257 826.859 688.564 822.254C688.13 822.236 687.699 822.216 687.265 822.196C685.159 822.92 683.059 823.618 680.929 824.298C683.152 823.289 685.303 822.275 687.522 821.203C684.825 822.927 692.187 820.18 691.482 821.431C691.166 822 688.022 823.615 686.154 824.597C691.32 823.329 696.62 821.854 701.786 820.287C699.263 821.545 696.718 822.77 694.164 823.957C691.972 824.668 689.811 825.34 687.615 825.999C687.602 826.002 687.588 826.005 687.574 826.007ZM539.482 18.7282C546.317 17.3009 558.739 17.0539 565.276 18.6052C556.672 18.6453 548.086 18.6878 539.482 18.7282ZM228.91 64.536C229.608 64.1995 230.285 63.8778 230.984 63.5465C228.249 65.5518 225.535 67.6091 222.87 69.7026C222.167 69.8275 221.451 69.9633 220.732 70.1056C223.422 68.2099 226.165 66.3435 228.91 64.536ZM101.909 234.737C102.615 232.374 102.69 232.155 103.683 229.236C103.682 229.24 103.681 229.243 103.679 229.246C104.034 228.068 107.585 218.5 107.464 219.67C105.746 224.422 104.024 229.554 102.507 234.517C102.3 234.617 102.129 234.6 101.909 234.737ZM124.836 179.684C124.84 179.678 124.844 179.672 124.848 179.666C125.746 178.056 126.647 176.554 127.583 174.892C124.633 181.099 123.524 181.723 120.901 187.392C118.316 193.086 117.089 196.713 114.067 201.173C114.72 199.308 115.396 197.286 116.09 195.371C120.183 187.51 120.961 185.217 123.939 178.742C124.238 179.058 124.537 179.369 124.836 179.684ZM575.839 835.88C574.131 836.603 572.225 835.899 572.027 835.89C572.031 835.89 572.034 835.889 572.038 835.888C556.903 836.574 574.008 835.487 559.723 835.397C561.849 835.214 563.939 835.022 566.045 834.837C569.302 835.177 572.661 835.565 575.839 835.88ZM137.608 692.161C137.682 691.951 137.742 691.718 137.816 691.507C142.384 698.646 144.199 700.013 147.771 706.104C144.256 701.556 140.866 696.906 137.606 692.162C137.607 692.162 137.608 692.162 137.608 692.161ZM91.2287 276.253C92.4723 266.868 93.7634 259.968 96.327 251.256C96.3292 251.249 96.3314 251.242 96.3337 251.236C96.4825 250.735 96.1804 253.26 96.4151 252.616C96.8086 250.787 97.2061 248.912 97.6325 247.06C97.9306 246.872 98.2256 246.697 98.5224 246.51C97.1079 251.634 95.8289 256.771 94.67 261.997C94.97 261.253 95.2753 260.492 95.5804 259.753C94.6924 264.211 93.9178 268.607 93.2279 273.082C93.0978 271.464 92.9804 269.848 92.8718 268.245C92.2905 270.899 91.7446 273.572 91.2287 276.253ZM236.56 791.929C235.388 790.969 237.932 792.137 236.041 790.767C234.148 789.404 230.338 787.402 231.493 787.465C234.164 789.093 237.005 790.757 239.775 792.327C231.511 786.199 222.637 781.14 223.226 780.006C231.098 785.844 238.035 790.025 246.424 794.425C245.574 795.144 236.923 791.036 241.606 794.915C239.932 793.945 238.185 792.915 236.58 791.938C236.573 791.935 236.567 791.932 236.56 791.929ZM355.739 8.00458C361.662 7.16981 375.289 5.54801 382.897 5.59517C384.784 5.5713 390.967 6.52782 390.943 6.694C390.773 7.21178 383.288 7.54589 391.324 7.61527C388.618 7.69476 386.023 7.81908 383.33 7.97032C383.831 8.29612 384.332 8.62183 384.808 8.9493C388.043 8.73796 391.297 8.57491 394.56 8.46059C394.723 8.5733 394.885 8.68636 395.047 8.79925C383.345 9.10917 390.268 9.36363 384.244 10.0384C389.805 9.96364 395.418 10.0294 401 10.2403C397.779 10.2111 393.992 10.2551 391.172 10.3128C390.81 10.9038 397.538 10.6116 398.702 10.7328C405.188 11.0472 372.129 11.8799 369.601 13.4614C374.82 13.0365 380.348 12.7173 385.733 12.5513C384.21 12.7326 382.636 12.9282 381.105 13.1333C368.904 13.3024 355.262 14.6844 341.184 17.0134C339.928 17.2811 338.672 17.5576 337.439 17.8353C337.863 18.0309 338.264 18.2304 338.686 18.4274C336.802 18.8414 334.874 19.2829 332.991 19.7342C338.399 17.654 330.613 19.1953 321.218 21.0664C326.062 19.4529 332.253 18.2694 331.701 17.7827C314.685 21.9823 294.86 27.6294 279.325 34.7666C275.489 36.5507 275.761 37.1901 266.741 41.2998C267.007 41.0763 266.992 40.9076 267.14 40.7099C251.797 48.4779 242.826 53.7375 227.638 63.122C228.661 62.8017 229.67 62.4969 230.694 62.187C233.783 60.0138 236.931 57.8829 240.081 55.834C242.554 54.9633 239.326 56.9713 249.133 51.4247C257.233 47.0035 252.312 49.4509 254.455 48.1355C257.374 46.3766 260.206 45.3603 263.401 43.5576C265.885 42.1823 262.929 43.1138 269.665 40.0816C267.178 41.7852 264.683 43.5605 262.239 45.3508C260.58 46.0456 258.937 46.7467 257.289 47.4681C258.838 46.512 260.371 45.5841 261.942 44.6537C256.309 47.7222 251.094 50.7645 245.486 54.2769C246.981 52.5563 241.183 56.1964 238.078 58.221C233.226 61.375 237.168 58.3255 233.995 60.4088C230.831 62.5153 227.717 65.196 222.026 69.0046C224.849 66.6324 220.574 69.2341 221.188 68.4287C221.795 67.6085 227.77 63.4474 221.809 67.1195C210.992 75.0913 223.538 67.6068 216.311 73.046C207.744 79.6727 204.587 79.8809 206.866 77.5127C208.663 75.6483 215.775 70.4272 217.711 68.6892C204.553 77.5023 205.34 78.7686 203.345 80.579C196.312 87.445 199.888 81.4631 191.624 89.6966C191.509 89.2365 191.391 88.8353 191.289 88.3874C189.829 89.777 188.9 90.7421 187.144 92.425C193.015 88.2354 188.621 92.1194 186.418 94.1616C182.95 97.3827 188.584 92.708 187.737 93.6389C185.427 96.1161 181.494 99.717 184.112 97.722C182.931 98.6089 181.666 99.5899 180.468 100.524C176.612 104.511 168.999 115.099 177.271 106.005C176.935 107.282 173.945 109.905 171.758 112.107C169.574 114.308 169.926 114.554 168.043 116.519C160.633 124.42 164.766 118.636 165.491 116.962C156.417 128.103 165.522 117.422 152.779 133.677C151.921 135.53 158.179 128.349 153.512 134.753C151.998 135.421 147.857 139.617 141.155 148.877C140.684 149.899 140.223 150.922 139.766 151.946C135.728 156.728 136.683 153.583 131.432 163.918C133.207 157.731 131.801 161.861 126.02 170.495C124.852 172.257 126.95 167.84 125.33 170.309C124.595 171.429 123.241 174.398 121.517 177.17C120.662 178.51 116.595 184.816 114.667 189.637C117.075 186.608 113.508 195.723 117.775 188.491C110.928 202.326 107.31 212.624 113.114 196.201C111.252 199.673 109.445 203.205 107.714 206.745C106.865 209.364 106.041 212.017 105.254 214.677C104.469 214.822 104.283 214.325 100.852 224.587C102.204 220.085 103.649 215.628 105.216 211.157C105.14 210.956 105.242 210.288 105.054 210.384C103.065 215.852 97.9188 231.329 97.0692 235.195C96.1203 239.026 98.3658 231.753 98.2216 232.897C96.9701 242.371 96.1352 241.343 94.656 247.981C93.8192 251.866 96.363 242.72 95.8968 244.797C94.1287 252.481 92.5162 255.827 91.0643 262.708C92.0268 260.358 93.0168 258.05 94.0177 255.801C92.3469 262.942 90.8317 270.909 89.9431 277.676C89.5972 280.325 90.2511 278.384 90.2084 278.818C89.972 280.951 89.0415 289.669 88.9677 290.602C88.2206 297.582 87.7206 297.684 87.1881 304.479C87.33 301.81 87.496 299.307 87.6978 296.712C87.0129 295.458 86.3384 294.18 85.6711 292.897C84.9066 299.55 84.3492 306.28 84.0039 313.003C84.4809 308.119 85.0738 303.155 85.7728 298.304C85.7376 306.005 85.991 313.697 86.5261 321.341C86.3232 323.082 86.1342 324.826 85.9589 326.577C85.734 328.817 85.5084 331.057 85.282 333.302C85.3886 344.148 87.0354 341.964 85.5951 347.109C85.7179 350.307 85.8413 353.505 85.9637 356.703C85.7567 356.246 85.5494 355.794 85.3426 355.337C85.4704 359.191 85.5979 363.045 85.7285 366.899C86.463 362.847 87.2317 358.873 87.9367 354.86C88.1064 362.446 87.4838 362.592 87.3294 363.723C86.92 366.723 87.483 372.679 87.1026 375.063C86.9714 375.869 86.5538 368.435 86.0809 370.997C85.9913 371.498 84.2416 381.451 84.6439 387.801C84.9625 387.682 85.3531 387.191 85.6994 386.933C85.8976 395.474 84.2266 399.829 83.758 398.697C84.0835 403.247 84.1086 409.898 84.6235 410.831C84.6357 413.156 84.6472 415.463 84.6595 417.788C83.403 415.366 83.6259 425.062 84.7124 425.698C84.7397 421.704 84.7684 417.705 84.7955 413.712C86.1194 416.732 86.9178 404.595 85.697 429.849C85.0045 434.677 85.7894 421.266 85.2716 425.2C84.97 432.035 85.2243 438.451 84.7381 444.948C84.1294 453.032 83.5442 443.086 84.3147 461.921C86.261 420.374 85.6279 467.62 86.2518 487.133C84.5313 491.883 83.8357 505.346 84.1 524.12C84.1344 526.571 84.2129 529.104 84.3411 531.709C84.6327 530.306 84.6111 527.252 84.6246 524.12C84.6326 521.947 84.6289 519.743 84.7035 518.052C84.8847 513.939 85.2107 518.389 85.4661 513.265C85.7214 508.141 86.0642 497.255 86.4444 492.067C86.7533 496.461 87.5041 518.151 86.6137 503.81C86.2145 511.815 85.8012 516.645 85.576 524.12C85.5006 526.652 85.4733 529.482 85.5379 532.823C86.562 536.766 86.8963 536.42 87.8499 549.275C86.0521 541.765 86.3865 556.444 84.8901 553.344C84.4152 544.154 86.0413 549.184 86.253 543.851C86.2494 543.292 85.5377 534.812 85.5379 532.823C84.7244 541.441 84.5739 544.498 82.9963 539.225C83.3943 545.364 83.5633 549.197 84.2179 549.702C84.0509 550.997 83.8917 552.3 83.7376 553.577C83.9248 555.563 84.127 557.348 84.3531 559.469C84.9736 556.453 84.9844 562.17 85.9411 566.093C86.923 570.009 86.8225 564.588 88.5093 575.453C88.136 571.777 87.8478 568.474 87.6 564.935C88.7399 571.892 90.1319 578.894 91.7405 585.743C91.2922 580.798 90.4509 570.04 91.2764 570.246C91.4121 573.492 93.8713 584.311 94.1718 585.464C95.1814 590.027 94.2055 587.632 94.2623 587.979C95.5388 595.268 97.2013 601.074 97.2068 603.977C98.9512 609.27 99.9225 613.322 101.71 618.925C102.709 622.011 103.036 621.24 103.532 623.069C107.092 635.121 101.968 624.307 112.275 646.313C111.481 643.465 110.75 640.645 110.038 637.781C111.17 640.27 112.328 642.724 113.521 645.172C114.169 646.879 114.826 648.569 115.504 650.266C114.728 650.566 113.948 650.859 113.172 651.159C113.948 653.023 114.746 654.886 115.557 656.733C114.021 653.631 112.531 650.491 111.095 647.329C110.837 647.095 110.586 646.878 110.329 646.644C112.13 651.489 114.04 656.273 116.07 661.02C116.375 660.984 116.681 660.945 116.985 660.908C121.773 671.508 121.705 671.879 127.833 681.102C132.07 688.471 136.865 693.643 139.999 697.408C140.833 698.956 141.681 700.505 142.555 702.06C143.397 702.846 144.249 703.636 145.098 704.41C146.103 706.423 147.148 708.453 148.199 710.45C149.582 710.973 150.085 711.389 145.262 704.179C147.696 706.097 156.505 718.507 160.31 723.43C163.144 727.205 159.159 723.716 159.462 724.228C160.446 725.981 165.765 731.696 166.832 732.935C171.283 738.245 174.667 741.735 178.96 746.293C179.792 747.183 181.865 749.941 182.065 750.152C183.613 751.795 187.512 755.785 187.982 756.212C212.399 777.937 187.181 753.788 210.565 772.987C210.03 772.195 209.555 771.449 209.044 770.667C210.854 772.051 212.699 773.431 214.538 774.774C216.711 776.69 213.61 775.01 218.477 778.078C217.954 778.165 217.43 778.249 216.891 778.32C219.039 779.626 221.127 780.854 223.353 782.14C225.861 785.576 238.175 793.701 236.519 794.426C235.924 794.725 226.735 789.529 231.137 792.991C234.917 795.5 232.65 793.335 234.236 794.285C245.741 801.008 244.728 801.237 249.611 803.697C250.545 803.773 251.521 803.859 252.474 803.932C254.23 804.993 256.003 806.041 257.801 807.079C258.344 807.067 258.904 807.063 259.445 807.049C257.727 806.169 255.803 805.161 254.245 804.323C256.809 804.79 277.447 813.921 269.286 811.062C265.948 809.926 260.218 806.951 263.376 809.792C268.908 812.283 275.294 814.951 281.262 817.203C281.35 817.513 281.425 817.819 281.514 818.13C289.584 821.18 282.668 817.33 282.898 816.829C284.724 817.549 286.575 818.262 288.417 818.949C289.107 819.477 289.757 819.999 290.494 820.529C290.711 820.18 292.046 819.751 297.438 822C300.925 823.428 294.979 822.469 301.843 824.631C301.528 823.863 299.291 822.395 306.962 824.629C307.528 825.481 308.398 826.366 308.791 827.194C318.504 829.432 322.645 831.606 334.241 833.43C341.603 834.581 351.839 834.624 356.208 837.773C361.574 838.581 359.953 837.706 361.562 837.772C369.175 838.04 374.638 839.659 376.055 839.847C385.047 840.972 389.072 840.687 396.431 841.401C396.038 840.919 395.828 840.465 395.517 839.995C388.778 840.56 385.387 840.439 375.969 839.59C379.126 839.742 382.308 839.846 385.47 839.904C384.976 839.495 384.485 839.084 384.008 838.675C354.902 837.875 361.929 836.313 386.148 837.375C388.193 838.183 390.334 838.972 392.397 839.744C395.577 839.584 398.379 839.472 401 839.402C409.983 839.157 416.752 839.762 429.113 839.939C431.01 839.965 437.918 839.547 440.888 839.525C440.838 839.522 440.789 839.519 440.739 839.517C442.587 838.83 440.085 838.515 439.786 837.902C441.396 837.824 443.006 837.746 444.615 837.668C448.209 838.133 446.945 838.519 454.018 838.403C453.064 837.936 452.123 837.47 451.169 837.003C458.919 836.978 463.99 837.483 471.203 837.256C469.991 837.435 468.794 837.614 467.582 837.793C483.279 838.235 470.787 841.014 482.649 839.631C483.404 839.873 484.139 840.118 484.894 840.361C480.007 840.42 475.117 840.477 470.25 840.535C470.151 840.877 470.043 841.217 469.964 841.558C475.19 841.458 480.441 841.355 485.667 841.254C481.852 841.483 478.014 841.711 474.199 841.938C480.259 842.106 486.32 842.274 492.38 842.444C485.945 841.176 494.288 841.026 492.719 839.772C503.449 840.812 511.877 842.205 528.508 841.324C531.805 841.148 530.014 840.258 539.372 841.343C537.107 839.929 548.83 839.262 547.324 837.913C544.066 837.98 540.688 838.023 537.53 838.105C541.126 838.569 541.722 839.855 536.259 840.235C529.285 840.719 519.113 839.833 519.529 841.249C516.748 841.181 514.162 841.141 511.461 841.084C512.573 840.734 513.662 840.382 514.754 840.031C507.067 840.581 502.238 840.4 498.543 839.522C507.701 839.317 516.84 839.114 525.999 838.908C524.65 838.848 523.282 838.788 521.933 838.73C528.867 837.82 521.714 836.968 534.65 836.76C534.57 837.176 534.507 837.592 534.427 838.01C539.137 836.895 552.03 836.884 547.917 835.605C551.811 835.994 552.605 836.243 554.81 835.546C565.083 836.508 571.681 837.749 568.025 839.235C571.839 838.995 575.656 838.754 579.45 838.512C577.245 838.106 575.037 837.703 572.832 837.299C579.469 837.318 586.154 837.337 592.77 837.354C593.406 838.564 579.996 837.73 583.865 838.807C584.639 839.023 588.211 838.557 589.149 838.679C599.044 839.997 583.511 839.047 586.428 840.058C596.791 840.277 594.041 841.183 598.543 841.207C600.462 841.211 603.7 841.078 609.717 840.451C610.265 840.784 610.855 841.121 611.366 841.45C618.412 841.157 617.842 840.379 623.876 839.786C627.645 839.397 632.54 840.332 636.628 838.877C637.33 838.577 630.193 837.865 644.82 835.948C656.169 834.231 651.656 836.162 657.862 835.49C664.106 834.844 677.559 829.908 682.112 830.594C678.874 831.21 674.815 832.1 671.237 832.72C669.887 833.422 668.566 834.103 667.218 834.781C675.235 832.54 683.695 830.854 688.797 828.394C699.86 826.621 711.069 821.003 707.371 820.706C704.042 822.154 707.987 821.468 703.091 822.743C702.483 822.57 701.85 822.406 701.245 822.229C709.33 819.483 714.87 817.203 711.619 819.677C712.875 819.225 714.115 818.77 715.364 818.302C715.287 817.464 715.183 816.633 715.103 815.795C716.535 815.123 717.966 814.439 719.384 813.747C721.065 813.236 722.763 812.705 724.463 812.156C722.77 814.254 719.067 816.064 731.717 811.122C731.566 810.703 731.433 810.278 731.281 809.859C741.715 805.486 742.539 806.389 755 799.415C746.193 806.186 739.509 806.31 740.949 809.084C738.384 810.139 735.784 811.167 733.204 812.149C733.014 812.733 732.826 813.316 732.651 813.891C746.252 807.616 765.944 792.662 775.128 788.654C775.989 787.788 776.868 786.939 777.726 786.036C786.411 781.481 788.16 776.826 796.818 771.959C797.69 771.417 797.724 774.899 807.534 766.474C807.073 766.433 806.581 766.118 806.111 765.969C808.357 764.311 810.58 762.639 812.775 760.938C812.941 760.373 813.123 759.792 813.284 759.226C809.698 762.336 806.055 765.355 802.338 768.301C805.296 765.696 808.221 763.022 811.075 760.313C806.917 763.364 805.153 764.84 806.954 762.216C810.259 759.256 813.505 756.222 816.683 753.127C816.871 752.662 817.054 752.198 817.239 751.732C815.266 752.773 813.281 753.815 811.292 754.802C820.06 747.381 826.986 740.198 833.793 734.426C834.937 733.426 832.049 737.998 838.26 729.761C838.69 729.921 839.135 729.938 839.554 730.06C846.767 719.617 849.569 716.625 857.96 706.425C852.336 712.888 857.213 707.019 858.086 704.983C858.693 703.596 855.392 708.359 855.508 707.635C855.652 706.922 858.896 700.054 855.102 705.21C847.964 719.451 842.988 721.082 830.497 736.897C832.354 734.383 834.182 731.828 835.956 729.265C834.832 730.222 833.819 731.07 832.596 732.088C840.342 723.978 836.506 727.856 839.172 724.09C841.825 720.307 846.725 713.535 849.926 708.95C850.937 707.507 850.32 709.361 852.693 706.162C854.327 703.989 857.788 697.386 859.562 696.516C860.735 695.922 855.68 706.989 864.757 693.089C866.992 690.801 862.526 697.411 862.479 697.584C862.339 699.243 868.439 690.948 870.323 686.546C870.476 686.193 868.036 689.077 869.917 685.477C874.327 676.91 877.511 672.344 881.206 667.205C880.522 666.081 883.022 658.322 887.387 649.267C887.298 648.667 887.195 648.089 887.1 647.49C886.643 648.99 886.173 650.485 885.694 651.979C884.819 653.45 883.941 655.027 883.028 656.428C886.978 647.151 886.017 645.189 887.31 640.552C891.417 624.57 891.689 635.263 891.265 638.335C890.217 640.238 889.147 642.047 888.059 643.895C888.51 643.827 888.965 643.755 889.411 643.704C898.393 620.559 893.259 641.134 898.325 629.493C897.591 625.754 900.451 616.985 904.695 605.83C905.025 604.555 905.356 603.269 905.665 601.999C905.443 601.718 905.022 601.615 904.927 601.224C907.97 587.333 911.155 585.33 911.745 584.059C914.129 578.346 913.115 573.345 913.362 571.602C914.376 564.198 915.417 562.091 915.805 554.937C916.137 547.264 915.063 552.437 914.727 550.071C914.466 548.182 914.793 542.133 914.452 539.625C914.769 540.619 915.066 541.754 915.373 542.763C916.144 536.328 916.709 530.868 916.921 524.12C916.968 522.595 917.004 521.009 917.028 519.335C914.349 509.202 918.888 500.58 915.205 504.076C914.952 512.581 914.532 517.336 913.6 521.886C913.479 516.304 913.361 510.717 913.239 505.135C913.643 503.506 914.037 502.35 914.449 500.423C913.589 496.251 913.956 486.58 913.702 482.783C912.51 464.999 911.023 470.501 913.509 454.268C913.755 465.968 914.962 465.949 914.795 477.552C915.655 475.048 915.479 469.152 916.51 472.967C916.262 461.742 915.336 465.371 914.516 461.002C913.808 457.234 913.767 449.646 912.844 450.075C913.351 449.299 913.842 448.699 914.349 447.925C914.343 440.654 914.342 433.383 914.337 426.113C914.87 429.212 915.403 432.31 915.93 435.409C916.132 433.067 916.333 430.721 916.536 428.379C914.88 410.496 917.956 379.658 913.744 384.584C913.608 375.961 914.136 374.883 914.937 370.194C914.616 369.678 914.349 369.175 913.991 368.659C914.327 363.097 913.119 358.827 913.431 353.92C913.741 349.013 914.887 347.795 912.962 347.079C913.513 343.901 913.971 340.74 914.486 337.581C914.047 335.675 913.613 333.771 913.176 331.885C913.312 330.117 913.448 328.346 913.584 326.576C913.677 325.36 913.763 324.143 913.843 322.929C912.946 321.324 912.995 309.708 911.95 304.583C912.56 299.641 915.865 299.536 913.99 288.013C913.246 288.406 912.503 288.791 911.758 289.179C911.61 286.537 911.429 283.894 911.214 281.244C911.446 281.051 911.681 280.878 911.912 280.684C912.027 282.031 912.132 283.362 912.227 284.712C912.505 283.493 912.776 282.294 913.043 281.088C911.836 277.194 910.542 273.257 909.179 269.399C909.68 274.858 910.041 280.332 910.257 285.769C908.796 279.113 908.596 274.313 906.881 268.613C906.986 263.362 907.955 265.087 909.519 266.935C909.058 265.058 908.584 263.183 908.086 261.303C909.477 262.315 909.636 258.942 911.62 270.09C911.815 269.264 911.989 268.423 912.194 267.61C911.8 265.789 911.851 264.548 911.32 262.574C909.858 257.149 906.823 253.489 906.203 254.029C905.887 254.308 907.798 259.467 907.213 259.372C905.794 259.113 903.748 246.855 906.221 264.66C904.204 259.014 904.543 257.581 903.237 251.166C902.932 251.768 902.625 252.354 902.312 252.934C901.798 249.953 901.237 246.968 900.632 243.984C903.994 247.504 898.659 225.481 906.081 244.591C904.624 238.705 903.023 232.937 901.241 227.152C901.851 228.26 902.452 229.375 903.049 230.494C903.751 233.141 904.41 235.759 905.045 238.415C904.571 235.211 904.051 232.029 903.474 228.816C900.632 221.723 898.82 219.228 896.688 216.326C898.979 224.833 898.958 221.785 901.313 228.241C900.633 228.21 900.173 228.691 899.352 228.33C899.566 224.538 894.753 214.013 893.672 211.574C890.491 204.103 894.071 209.527 892.037 204.479C889.973 199.419 886.618 193.889 885.865 189.319C885.242 189.706 884.716 190.352 884.253 190.923C880.366 183.418 881.821 184.571 881.542 183.73C876.766 170.443 871.628 164.476 862.72 151.217C863.655 153.035 864.602 154.867 865.523 156.71C857.615 147.494 862.604 153.936 867.615 163.087C862.635 154.668 858.373 150.796 854.097 145.43C849.855 140.049 843.167 130.376 840.796 126.74C847.749 133.791 853.723 142.659 860.019 151.622C859.949 150.171 859.791 148.807 859.738 147.272C854.634 142.649 853.172 138.958 852.017 137.052C848.592 131.496 847.622 132.52 846.333 128.534C846.04 128.973 845.781 129.328 845.513 129.746C837.391 119.155 828.148 107.914 820.633 103.147C820.931 101.723 821.33 100.463 821.545 98.9276C816.831 95.5951 813.897 91.5923 810.162 88.5498C806.43 85.5464 807.156 87.478 802.645 84.1392C801.808 83.5262 800.548 81.657 798.278 80.4036C795.99 79.0836 786.437 76.0554 787.315 73.0034C783.486 70.1316 779.854 67.4136 775.998 64.7314C779.88 67.1624 783.708 69.6835 787.465 72.2696C784.771 69.3553 782.03 66.4953 779.207 63.6606C778.424 63.9126 777.636 64.1765 776.878 64.4384C767.736 59.2061 761.809 54.2857 752.401 49.301C750.826 48.4889 753.869 51.6029 747.13 47.5793C740.363 43.6513 736.219 38.7105 723.47 34.1986C722.81 33.9695 718.467 34.141 714.477 31.1816C713.565 30.5029 718.014 31.801 715.818 30.5118C713.637 29.1689 703.158 24.9959 702.603 23.8784C702.611 24.2268 703.166 24.7773 703.379 25.2038C701.511 24.718 699.62 24.2431 697.724 23.7829C697.732 23.1789 697.725 22.5693 697.73 21.9676C686.707 19.8843 680.728 20.2972 664.963 16.064C669.29 17.8494 673.541 19.7224 677.711 21.6697C679.071 21.411 680.438 21.1585 681.786 20.9133C688.972 23.111 696.085 25.5659 703.076 28.2638C704.458 28.0403 705.824 27.8209 707.214 27.6168C709.061 28.3816 710.893 29.1578 712.726 29.9576C712.086 30.2273 711.445 30.4952 710.79 30.7621C714.518 32.0509 718.221 33.4082 721.871 34.8258C713.511 34.2621 701.169 26.6094 701.331 29.2301C699.79 28.3066 698.236 27.3909 696.672 26.487C695.573 27.3535 692.279 25.8931 686.276 23.9597C687.505 24.9105 688.868 25.9039 689.96 26.8394C684.376 24.2547 673.828 21.5439 667.706 19.8971C665.012 19.1584 667.917 18.9361 667.128 18.6592C663.049 17.1913 654.792 17.1305 653.135 16.7462C643.236 14.356 636.947 10.6557 625.647 11.5157C637.027 13.0423 630.847 12.279 634.795 13.7321C636.042 14.187 650.623 16.6721 632.27 14.157C630.223 13.4562 596.621 10.0493 607.732 9.00718C604.373 9.20421 601.455 9.48938 598.543 9.81007C596.701 10.0151 594.862 10.2206 592.912 10.4195C580.672 6.43817 584.908 10.1791 588.465 12.2362C586.458 12.2459 584.549 12.2675 582.482 12.2684C586.874 10.105 564.501 9.96466 556.911 11.0648C554.368 11.4311 561.479 12.1257 555.598 12.4575C552.797 12.306 549.62 12.1092 546.661 11.939C550.953 13.3179 542.53 13.8549 542.648 15.2621C537.264 14.0157 533.145 11.3536 536.104 9.91149C531.654 10.4947 527.181 11.079 522.731 11.6688C524.797 12.0035 526.891 12.3347 528.957 12.6684C514.412 11.7848 495.71 13.8248 492.67 10.8372C490.743 10.8586 488.795 10.8772 486.867 10.8986C486.271 11.4041 485.695 11.9107 485.099 12.4166C476.378 11.9818 467.677 11.5414 458.956 11.1013C466.721 10.7844 468.57 10.0633 476.713 10.6492C473.575 10.0666 470.378 9.47953 467.3 8.89444C455.04 10.4623 453.368 11.5038 434.909 11.0351C434.075 11.0147 420.128 9.68358 419.651 9.55255C417.466 8.95821 420.783 8.09716 419.81 7.79684C417.108 6.95658 400.687 4.82145 401.005 4.50027C405.018 0.574482 460.267 0.658558 475.209 0.493354C516.526 0.0405226 557.601 -0.0572081 598.543 0.0277767C715.615 -0.700856 827.52 67.654 883.08 169.784C883.868 171.21 883.973 170.342 884.325 170.942C886.5 174.674 887.719 178.812 888.402 180.248C889.864 183.324 889.683 181.318 890.782 183.556C902.021 206.73 909.681 229.914 915.427 254.971C915.796 256.607 914.874 255.058 915.594 257.913C915.972 259.389 917.783 263.861 918.401 267.237C920.566 279.046 921.591 289.093 922.558 301.644C923.101 308.55 923.423 318.81 923.39 326.576C923.39 326.592 923.39 326.607 923.39 326.622C923.388 329.939 923.774 333.394 923.779 336.671C923.786 341.32 922.99 340.371 922.939 341.086C922.716 344.226 923.59 344.66 923.562 347.641C923.507 353.184 922.923 353.483 922.957 360.516C922.982 365.543 923.413 377.049 923.532 383.388C922.825 398.211 923.051 416.889 923.236 430.719C923.346 438.904 922.547 439.663 922.542 443.001C922.533 454.763 923.525 463.689 923.529 474.735C923.534 489.396 922.839 502.388 922.76 516.592C922.747 518.895 923.463 518.367 923.476 520.626C923.482 521.753 923.489 522.922 923.497 524.12C923.561 532.087 923.252 541.138 922.654 547.786C921.868 556.285 920.514 559.309 919.636 567.591C919.361 570.017 920.162 570.839 919.637 574.92C918.786 581.468 916.63 588.328 915.559 592.791C914.067 598.882 916.204 593.779 914.104 601.969C914.015 602.305 913.084 603.375 912.66 605.131C911.383 610.269 912.049 609.914 909.808 617.32C909.627 618.034 905.9 627.631 905.53 628.572C903.641 634.25 899.056 645.437 897.759 648.723C893.151 660.539 898.049 651.83 891.686 660.76C890.138 665.251 888.499 669.715 886.59 674.403C887.777 671.238 880.744 682.927 880.245 683.741C876.559 690.754 879.696 687.122 874.308 695.629C879.742 683.385 867.296 706.519 863.688 711.189C847.471 734.266 829.64 752.997 808.094 771.311C800.885 777.452 791.024 785.486 782.724 791.135C780.793 792.456 782.016 791.114 780.308 792.262C778.602 793.403 780.756 792.524 778.795 793.806C766.534 801.725 756.211 806.636 744.822 813.637C744.169 813.788 744.131 813.667 743.09 813.991C733.803 819.903 713.765 826.699 706.236 828.977C694.483 832.718 691.636 834.161 682.943 836.417C671.456 839.439 653.718 841.377 661.918 841.943C653.955 843.565 646.168 844.808 637.99 845.59C637.077 845.676 637.641 845.08 637.276 845.112C634.963 845.304 634.261 845.85 632.698 846.033C628.475 846.511 635.304 845.278 629.314 846.014C626.149 846.366 624.401 847.008 615.5 847.49C609.925 847.769 604.274 847.906 598.543 847.893C551.034 847.779 500.582 847.53 452.662 847.353C448.986 847.34 451.406 847.824 446.796 847.781C434.78 847.67 415.642 847.152 401 846.937C395.995 846.865 391.533 846.708 388.025 846.588C373.947 845.962 377.049 846.753 368.243 846.231C366.536 846.108 367.971 845.871 366.43 845.699C356.069 844.571 343.942 841.948 335.775 840.126C330.339 838.913 330.65 839.578 326.88 838.744C321.277 837.486 315.709 835.339 312.775 834.473C298.996 830.379 289.462 827.484 277.13 822.114C277.565 822.437 277.84 822.681 278.202 822.97C263.471 816.844 249.242 809.641 235.59 801.411C236.173 801.897 236.737 802.37 237.324 802.855C221.359 793.076 224.05 792.87 223.925 796.07C222.732 795.398 221.467 794.685 220.337 794.025C221.545 793.163 212.609 786.145 201.589 776.947C200.771 776.294 194.465 772.829 196.055 772.113C194.397 771.228 193.39 770.718 191.986 769.957C189.978 767.622 187.973 765.242 186.038 762.864C184.779 761.819 183.511 760.746 182.267 759.68C181.884 759.736 181.807 760.094 181.22 759.95C175.552 754.841 164.963 743.338 161.005 738.814C150.976 727.755 141.103 716.055 135.277 705.939C132.044 701.288 134.662 706.31 130.109 699.213C129.838 698.254 129.591 697.349 129.315 696.35C124.574 691.2 124.453 689.562 120.053 681.226C117.116 675.554 114.917 672.018 112.277 666.537C111.614 665.147 112.049 665.178 111.579 664.235C109.977 661.108 105.396 652.146 104.449 649.829C95.6188 629.069 90.0152 610.381 85.807 589.332C85.365 587.07 85.6 590.069 85.1484 587.73C84.4394 583.961 85.4101 586.071 85.025 583.884C84.0057 577.781 83.374 577.799 82.1151 569.249C80.101 555.041 79.0784 539.706 79.2221 524.12C79.3582 508.974 79.5082 493.675 79.5608 479.107C79.563 478.193 79.237 478.247 79.2363 477.254C79.237 470.778 79.6911 464.222 79.6995 458.342C79.715 448.586 79.2816 441.254 79.308 431.617C79.3575 412.78 79.6259 395.95 79.6842 376.577C79.733 360.721 79.7249 346.95 79.7686 329.564C79.7711 328.569 79.7734 327.573 79.7755 326.577C79.4688 250.329 107.835 172.527 159.198 115.333C160.514 113.858 160.163 114.621 160.555 114.163C164.293 109.825 164.435 109.251 166.314 108.217C171.224 102.829 172.461 100.807 178.842 94.7124C182.279 91.5033 180.219 94.4373 185.815 88.789C190.992 83.8269 184.501 88.4029 201.321 75.2327C201.774 74.8929 204.234 73.5251 207.702 70.759C211.215 68.0121 206.809 70.7456 215.481 64.4062C235.893 49.5537 264.357 34.5564 291.97 24.7088C293.642 23.9717 310.421 18.3122 313.792 17.4047C320.268 15.435 318.82 15.4346 327.346 13.3248C333.971 11.7483 339.526 10.9842 347.392 9.59919C348.302 9.44954 349.815 8.78375 355.739 8.00458ZM714.189 815.405C715.445 814.156 717.213 810.895 726.356 807.618C727.23 807.301 723.386 810.917 728.404 808.942C723.683 811.301 718.972 813.378 714.19 815.407C714.19 815.407 714.19 815.406 714.189 815.405ZM399.121 13.2899C391.772 13.2803 384.495 13.5198 377.165 14.0151C382.194 13.4693 387.239 13.0466 392.256 12.7441C394.55 12.9022 396.825 13.0846 399.121 13.2899ZM164.618 728.926C164.614 728.921 164.609 728.915 164.605 728.91C169.833 734.528 175.267 739.95 180.882 745.154C180.175 744.724 179.467 744.291 178.762 743.854C174.285 739.771 169.918 735.545 165.689 731.209C165.329 730.449 164.971 729.687 164.618 728.926ZM127.784 680.632C125.536 676.239 126.467 677.1 125.475 674.556C125.474 674.556 125.473 674.556 125.473 674.557C125.207 673.883 123.706 670.928 123.125 669.783C123.139 670.31 123.221 670.958 123.258 671.52C117.294 661.604 109.709 640.519 123.007 666.184C122.548 665.934 122.099 665.699 121.64 665.446C128.181 678.236 136.176 692.229 127.784 680.632ZM810.715 753.019C818.74 743.674 821.307 740.804 831.861 730.359C830.747 732.17 829.612 733.97 828.455 735.763C826.522 737.322 824.588 738.845 822.626 740.353C822.621 740.358 822.616 740.363 822.611 740.368C822.549 740.989 822.485 741.612 822.432 742.219C818.621 745.914 814.703 749.526 810.715 753.019ZM106.232 216.774C108.94 214.108 107.607 214.705 104.706 224.045C103.728 227.291 105.054 224.255 104.421 226.265C101.101 237.156 99.9886 237.757 100.152 235.155C101.987 228.957 104.046 222.75 106.224 216.793C106.227 216.787 106.229 216.78 106.232 216.774ZM316.475 23.0751C316.482 23.0732 316.488 23.0713 316.495 23.0694C316.867 23.3045 312.456 24.6346 317.543 23.5333C313.729 24.5843 309.957 25.6992 306.171 26.8991C307.275 26.5164 308.399 26.1364 309.501 25.7683C308.486 25.9593 307.473 26.1534 306.453 26.3563C305.227 27.1459 303.91 27.3165 299.933 28.5261C301.15 28.5421 302.36 28.5666 303.574 28.5955C298.958 29.9841 294.395 31.4708 289.836 33.0744C289.744 32.999 289.651 32.9239 289.559 32.8486C287.906 33.6191 286.28 34.3981 284.647 35.196C284.144 35.2648 283.657 35.329 283.154 35.4001C281.159 36.3119 279.183 37.2412 277.203 38.199C276.476 38.1966 280.846 36.1223 273.032 39.6454C275.302 38.2899 277.602 36.9598 279.925 35.6566C291.822 30.7177 304.073 26.5015 316.475 23.0751ZM87.9131 303.844C88.9842 289.743 89.0058 293.773 89.469 297.078C88.9283 299.312 88.4083 301.582 87.9131 303.844ZM418.165 838.268C422.298 837.52 426.448 836.777 430.68 836.049C439.105 835.617 447.533 836.977 441.195 837.52C433.565 838.169 425.596 837.459 418.165 838.268ZM609.985 837.586C599.755 837.512 609.36 836.324 611.605 835.656C614.425 836.417 618.406 836.161 624.7 835.743C618.804 836.316 611.666 837.599 609.985 837.589C609.985 837.588 609.985 837.587 609.985 837.586ZM258.838 803.571C255.175 801.733 251.494 799.985 248.402 797.989C249.687 797.961 255.832 801.959 251.705 798.606C254.007 799.838 256.325 801.041 258.642 802.204C256.987 801.819 258.819 803.105 258.829 803.565C258.832 803.567 258.835 803.569 258.838 803.571ZM87.9039 441.729C87.245 449.836 87.5304 451.372 88.008 459.539C87.4597 460.69 86.5328 450.952 86.3296 444.853C86.8549 443.819 87.38 442.782 87.9039 441.729ZM646.707 19.1165C648.823 18.081 662.835 20.3907 669.622 22.4491C668.761 22.4432 667.898 22.4427 667.037 22.4469C660.274 21.1058 653.535 20.0036 646.707 19.1165ZM627.695 835.541C626.642 835.611 625.644 835.679 624.7 835.743C625.747 835.644 626.758 835.57 627.695 835.541ZM913.552 559.45C914.159 562.961 915.695 552.898 913.83 565.115C913.831 565.115 913.832 565.115 913.833 565.116C912.49 573.143 912.125 574.928 910.711 582.338C909.946 579.421 912.103 564.372 908.16 584.967C908.103 585.237 908.973 584.846 908.203 588.108C907.959 589.12 906.685 592.253 905.352 597.101C904.921 598.671 901.851 610.463 905.73 594.305C904.748 594.588 904.062 593.518 903.206 593.365C904.363 587.015 907.038 582.525 908.128 575.739C909.695 565.671 908.389 560.358 910.955 558.663C910.702 567.263 908.226 581.815 906.431 583.401C904.836 591.47 905.374 594.083 907.329 587.626C911.629 559.292 910.861 580.23 913.017 555.103C912.721 554.776 912.467 553.718 912.146 553.846C913.974 546.33 913.381 558.168 913.552 559.45ZM898.885 617.653C899.699 612.744 900.383 607.831 900.95 602.91C902.01 603.183 902.372 606.085 900.777 613.75C900.155 615.051 899.52 616.365 898.885 617.653ZM888.381 205.638C887.487 205.243 886.18 203.742 885.042 202.736C885.387 200.968 869.801 169.133 878.519 184.929C879.883 187.212 885.561 202.153 888.381 205.638ZM87.2498 385.44C86.9948 389.653 86.7379 393.848 86.48 398.04C86.3103 391.587 86.1377 385.128 85.9679 378.674C86.3938 380.935 86.8213 383.179 87.2498 385.44ZM486.736 839.123C484.957 839.104 490.867 838.397 483.856 838.512C489.082 838.059 493.976 837.673 499.083 837.243C500.613 837.576 502.159 837.908 503.689 838.242C504.881 838.027 506.096 837.812 507.289 837.595C506.573 838.085 505.937 838.562 505.182 839.059C496.578 838.017 494.605 839.203 486.736 839.123ZM238.563 796.188C237.73 794.588 248.718 800.404 238.282 794.048C240.597 794.697 243.933 796.345 250.216 799.732C251.105 800.496 251.994 801.251 252.89 802.005C253.338 801.502 255.063 802.169 258.838 803.571C258.841 803.574 258.843 803.576 258.846 803.578C268.554 808.38 267.917 808.168 269.825 810.268C259.688 804.854 258.98 805.496 251.758 802.352C246.799 800.163 240.792 796.45 238.563 796.188ZM900.854 241.359C897.445 233.897 898.641 241.177 895.405 227.134C895.981 227.918 896.552 228.71 897.12 229.502C898.451 233.444 899.689 237.375 900.854 241.359ZM207.327 770.733C207.122 772.468 212.558 778.057 215.042 776.877C209.376 772.044 211.447 775.303 207.327 770.733ZM606.567 840.354C602.828 840.425 600.227 840.287 598.543 840.07C594.649 839.563 595.666 838.654 598.543 837.948C599.202 837.787 599.955 837.634 600.768 837.495C601.681 837.836 602.595 838.174 603.492 838.506C606.006 838.308 608.51 838.08 611.002 837.824C609.538 838.678 608.058 839.523 606.567 840.354ZM87.3464 556.058C89.4011 566.883 86.753 544.246 88.068 551.81C89.0439 557.802 89.1416 565.947 88.162 562.987C87.8855 560.884 87.606 558.529 87.3485 556.078C87.3478 556.071 87.3471 556.064 87.3464 556.058ZM100.318 618.134C100.792 616.099 101.197 618.699 98.5917 610.451C97.7051 608.117 93.4839 588.949 94.5756 597.16C96.1926 603.968 98.1516 611.185 100.318 618.134ZM763.455 791.793C763.934 792.295 751.509 801.107 749.571 801.679C749.572 801.68 749.572 801.68 749.572 801.681C744.554 803.446 758.461 795.566 751.818 797.888C765.661 791.237 767.96 786.269 768.949 789.797C761.372 794.775 764.615 791.862 763.455 791.793ZM459.072 11.8241C459.065 11.8241 459.058 11.8241 459.051 11.8241C460.072 11.8624 468.481 13.0437 467.459 13.4539C457.346 13.1092 459.148 12.3244 449.733 13.6159C449.217 13.202 448.775 12.8005 448.219 12.3833C451.955 12.1359 454.025 11.6384 459.072 11.8241ZM872.674 170.469C874.695 173.597 877.235 179.913 879.177 183.649C870.489 173.108 864.505 158.139 872.674 170.469ZM195.189 88.3134C195.182 88.3207 195.174 88.328 195.166 88.3353C195.168 88.3327 195.171 88.3293 195.173 88.3266C195.178 88.3222 195.184 88.3178 195.189 88.3134ZM912.328 450.922C912.508 450.442 912.665 450.172 912.802 450.075C912.815 450.075 912.828 450.075 912.841 450.075C912.672 450.333 912.501 450.609 912.328 450.922ZM789.206 773.822C794.769 770.682 778.763 784.465 772.755 787.811C772.942 787.23 772.815 786.903 773.492 785.924C778.669 783.746 788.339 774.385 789.206 773.822ZM324.856 829.535C341.012 833.384 319.291 831.177 318.995 828.63C319.039 828.609 324.444 829.449 324.856 829.535ZM672.161 830.02C668.255 831.902 676.648 830.325 663.275 833.089C662.444 833.009 661.619 832.924 660.798 832.836C664.598 831.97 668.404 831.027 672.161 830.02ZM433.01 842.608C453.992 842.135 474.059 841.252 460.392 838.779C458.804 838.86 457.194 838.937 455.606 839.017C455.367 840.221 449.508 839.564 440.93 839.527C439.707 840.003 434.951 840.113 434.058 840.516C432.332 841.294 437.798 841.846 433.01 842.608ZM124.209 173.223C124.168 173.587 124.132 173.945 124.092 174.309C122.627 177.297 121.215 180.299 119.852 183.325C119.852 182.724 119.855 182.122 119.859 181.52C121.267 178.734 122.704 175.99 124.198 173.241C124.201 173.235 124.205 173.229 124.209 173.223ZM895.014 637.959C893.15 635.222 891.502 641.637 887.179 654.547C889.946 649.103 892.561 643.565 895.014 637.959ZM139.948 704.699C140.16 704.017 140.378 703.343 140.583 702.648C136.071 697.048 136.294 698.477 137.594 701.768C138.378 702.757 139.153 703.72 139.948 704.699ZM95.5683 611.368C96.2842 614.273 96.2842 612.684 96.3615 612.987C98.2935 620.276 98.4016 621.409 101.748 630.059C102.235 631.091 102.727 632.099 103.228 633.123C102.857 628.716 101.172 626.017 99.1117 617.171C99.217 618.836 99.338 620.514 99.4701 622.19C97.9854 617.347 96.6389 612.548 95.3901 607.653C95.1175 607.107 94.8471 606.558 94.5775 606.01C94.8912 607.787 95.217 609.621 95.5683 611.368ZM145.176 141.081C148.074 137.151 151.085 133.262 154.162 129.47C154.101 129.191 154.034 128.918 153.973 128.639C150.943 132.711 147.997 136.876 145.176 141.081ZM914.452 539.625C914.328 539.233 914.202 538.85 914.071 538.51C914.247 538.55 914.368 538.978 914.452 539.625ZM446.175 9.08024C440.633 8.72786 432.645 8.95484 426.565 8.87878C427.043 10.1413 442.496 9.79549 447.923 10.5573C448.795 10.3319 448.518 9.22854 446.175 9.08024ZM586.608 840.375C585.217 840.809 583.828 841.24 582.457 841.672C579.099 841.624 575.733 841.573 572.356 841.525C572.256 841.878 572.159 842.234 572.059 842.588C586.939 842.14 583.508 843.157 590.875 844.178C589.445 842.909 588.038 841.642 586.608 840.375ZM262.586 40.9599C252.942 45.8488 249.787 48.0061 255.432 45.7189C258.732 43.8411 262.103 42.0055 265.472 40.2494C264.505 40.4843 263.539 40.7229 262.586 40.9599ZM915.825 343.839C915.352 335.08 917.006 334.708 916.19 326.576C916.168 326.355 916.144 326.128 916.118 325.895C916.103 326.122 916.088 326.349 916.072 326.576C915.761 331.06 915.447 335.542 915.139 340.006C915.367 341.273 915.597 342.572 915.825 343.839ZM816.472 760.32C819.691 758.076 823.173 751.375 831.995 744.848C833.36 742.582 834.06 741.028 835.138 739.02C836.452 738.477 837.889 737.797 839.158 737.275C839.163 737.269 839.167 737.264 839.172 737.259C845.505 729.722 840.719 734.027 840.388 733.439C840.268 733.199 845.307 727.942 843.394 729.301C840.186 731.721 830.797 742.908 829.837 742.06C833.676 738.638 840.006 730.886 837.445 732.576C834.682 734.432 829.459 742.386 824.706 746.124C832.108 741.336 819.214 753.606 816.66 753.826C809.815 761.719 817.26 755.695 824.762 748.063C820.95 753.485 827.316 746.259 829.078 745.747C824.96 751.179 807.464 766.52 816.472 760.32ZM345.393 838.089C352.531 839.338 363.609 841.348 368.652 840.996C371.559 840.827 360.368 839.256 368.188 839.343C361.204 838.674 359.6 838.693 360.701 839.509C359.106 839.386 357.493 839.245 355.903 839.096C355.19 838.865 354.46 838.631 353.75 838.396C352.886 838.539 352.008 838.673 351.152 838.81C349.474 838.491 347.781 838.156 346.114 837.809C345.894 837.908 345.538 837.964 345.393 838.089ZM827.952 107.351C829.338 108.786 830.697 110.22 832.058 111.679C832.076 111.364 832.071 111.012 832.069 110.669C832.081 110.411 832.092 110.153 832.103 109.895C832.443 111.182 837.983 118.959 841.065 121.59C842.624 122.917 840.651 118.554 846.276 125.044C842.299 120.258 838.404 116.001 834.263 111.61C834.902 111.761 835.529 111.896 836.167 112.051C836.165 112.048 836.163 112.045 836.161 112.042C834.876 110.492 833.562 108.932 832.246 107.405C830.808 107.373 829.385 107.362 827.952 107.351ZM142.416 710.131C146.796 715.388 148.41 717.014 147.072 714.001C147.068 713.995 147.064 713.989 147.06 713.983C145.276 712.158 143.511 710.306 141.768 708.43C141.979 708.992 142.19 709.553 142.416 710.131ZM918.329 481.247C914.31 466.842 916.763 499.283 918.13 493.107C918.193 492.828 917.883 482.599 918.329 481.247ZM609.249 841.333C605.703 841.474 602.135 841.555 598.543 841.577C598.126 841.58 597.709 841.583 597.292 841.585C597.706 841.776 598.124 841.966 598.543 842.157C599.055 842.387 599.569 842.616 600.076 842.844C603.155 842.386 606.217 841.88 609.249 841.333ZM221.428 63.7379C217.619 65.5945 208.746 71.76 205.008 75.5312C207.232 73.8899 209.481 72.2748 211.744 70.6934C207.589 73.8543 203.559 77.087 199.534 80.4661C199.838 81.2787 204.172 77.0163 211.616 71.753C212.757 70.9132 220.631 66.4743 222.802 64.1444C223.223 63.6465 215.286 69.0357 220.508 64.8649C218.086 66.4935 216.037 67.9574 213.796 69.5632C213.523 69.5271 213.25 69.4901 212.96 69.4664C215.758 67.5078 218.569 65.6073 221.428 63.7379ZM387.151 842.574C397.029 843.025 398.297 842.428 400.359 841.596C395.743 841.682 391.144 841.668 386.568 841.558C386.772 841.897 386.946 842.234 387.151 842.574ZM155.981 122.929C152.448 127.048 154.305 125.564 152.999 127.312C148.116 133.952 144.469 138.241 139.968 145.027C140.2 144.531 140.413 144.074 140.639 143.597C140.635 143.603 140.631 143.609 140.627 143.614C119.128 175.641 130.665 158.922 143.817 140.041C144.28 139.711 144.73 139.4 145.193 139.071C151.018 130.578 156.928 123.124 155.981 122.929ZM906.872 609.241C907.175 608.862 907.414 612.848 908.692 605.846C908.321 599.955 906.897 609.088 905.559 611.088C905.909 609.206 906.258 607.279 906.568 605.409C903.093 616.264 902.878 617.913 905.388 614.334C905.566 614.077 906.571 609.619 906.872 609.241ZM919.146 535.241C916.491 533.584 916.994 547.975 917.812 547.534C917.992 545.548 917.625 543.971 917.951 541.867C918.272 539.733 918.958 539.244 919.146 535.241ZM676.056 834.295C676.463 834.213 680.837 834.156 680.225 833.475C674.689 833.005 664.707 836.459 666.63 836.704C670.049 835.928 672.256 835.129 676.057 834.298C676.057 834.297 676.056 834.296 676.056 834.295ZM278.611 32.3929C278.408 32.391 268.613 36.3833 267.494 37.1944C266.581 37.8899 266.191 38.3676 265.543 38.958C270.652 36.2156 281.578 31.8582 278.592 32.4011C278.598 32.3984 278.605 32.3956 278.611 32.3929Z" fill="black"/>
<circle cx="194.725" cy="120.301" r="109.225" fill="#D9D9D9" stroke="black"/>
<circle cx="804.819" cy="120.301" r="109.225" fill="#D9D9D9" stroke="black"/>
<circle cx="195.3" cy="181.77" r="32.8196" fill="#0D1117" stroke="white"/>
<circle cx="805.393" cy="181.77" r="32.8196" fill="#0D1117" stroke="white"/>
<path d="M499.579 503.969L343.514 245.539C464.69 359.228 533.235 358.543 655.645 245.539L499.579 503.969Z" fill="#DBC650"/>
<path d="M498.74 302.595C386.989 302.595 443.271 245.539 443.271 245.539H554.21C554.21 245.539 610.492 302.595 498.74 302.595Z" fill="url(#paint1_linear_2047_34)"/>
<path d="M499.798 181.77L655.772 246.591C533.955 262.912 465.633 262.727 343.823 246.591L499.798 181.77Z" fill="#DBC650"/>
<g filter="url(#filter0_f_2047_34)">
<ellipse cx="499.197" cy="570.691" rx="342.962" ry="231.514" fill="#FDFDFF"/>
<path d="M499.197 339.677C593.817 339.677 679.457 365.568 741.428 407.4C803.402 449.235 841.66 506.976 841.66 570.69C841.66 634.405 803.402 692.147 741.428 733.981C679.457 775.814 593.817 801.704 499.197 801.704C404.577 801.704 318.937 775.814 256.966 733.981C194.993 692.147 156.735 634.405 156.735 570.69C156.735 506.976 194.993 449.235 256.966 407.4C318.937 365.568 404.577 339.677 499.197 339.677Z" stroke="black"/>
</g>
<path d="M816.288 497.083L759.015 825.832H240.528L182.109 497.083H816.288Z" fill="#0D1117" stroke="white"/>
<rect x="240.108" y="826.333" width="519.326" height="24.128" fill="#D9D9D9"/>
<line x1="181.512" y1="496.083" x2="816.883" y2="496.083" stroke="white"/>
<defs>
<filter id="filter0_f_2047_34" x="-7.46513" y="175.477" width="1013.32" height="790.428" filterUnits="userSpaceOnUse" color-interpolation-filters="sRGB">
<feFlood flood-opacity="0" result="BackgroundImageFix"/>
<feBlend mode="normal" in="SourceGraphic" in2="BackgroundImageFix" result="shape"/>
<feGaussianBlur stdDeviation="81.85" result="effect1_foregroundBlur_2047_34"/>
</filter>
<linearGradient id="paint0_linear_2047_34" x1="499.772" y1="10.5765" x2="499.772" y2="840.12" gradientUnits="userSpaceOnUse">
<stop stop-color="#5065DB"/>
<stop offset="1" stop-color="#29336B"/>
</linearGradient>
<linearGradient id="paint1_linear_2047_34" x1="499.579" y1="316.859" x2="499.579" y2="245.539" gradientUnits="userSpaceOnUse">
<stop offset="0.576923" stop-color="#FF5315"/>
<stop offset="1" stop-color="#0D1117"/>
</linearGradient>
</defs>
</svg>
