<svg width="722" height="722" viewBox="0 0 722 722" fill="none" xmlns="http://www.w3.org/2000/svg">
<path d="M0 360C0 161.178 162.177 0 361 0V0C559.823 0 722 161.178 722 360V722H0V360Z" fill="#238636"/>
<circle cx="95.5" cy="95.5" r="95.5" fill="#D9D9D9"/>
<circle cx="626.5" cy="95.5" r="95.5" fill="#D9D9D9"/>
<circle cx="125" cy="67" r="29" fill="#0D1117"/>
<circle cx="598" cy="67" r="29" fill="#0D1117"/>
<path d="M474 300.5C474 312.516 471.077 324.414 465.398 335.516C459.72 346.617 451.396 356.704 440.903 365.2C430.41 373.697 417.953 380.437 404.243 385.035C390.533 389.633 375.839 392 361 392C346.161 392 331.467 389.633 317.757 385.035C304.047 380.437 291.59 373.697 281.097 365.2C270.604 356.704 262.28 346.617 256.602 335.516C250.923 324.414 248 312.516 248 300.5L361 300.5H474Z" fill="white"/>
</svg>
