<svg width="500" height="500" viewBox="0 0 500 500" fill="none" xmlns="http://www.w3.org/2000/svg">
<rect width="500" height="500" rx="130" fill="#171717"/>
<g clip-path="url(#clip0_2011_25)">
<path d="M248.885 135H316.843C340.921 135 360.835 139.915 376.584 149.746C392.446 159.461 404.314 172.935 412.189 190.168C420.063 207.401 424 227.12 424 249.326C424 271.648 420.063 291.425 412.189 308.658C404.314 325.891 392.446 339.423 376.584 349.254C360.835 359.085 340.921 364 316.843 364H248.885V135ZM299.896 180.973V318.026H312.22C325.116 318.026 335.786 315.077 344.231 309.179C352.676 303.164 359.009 295.011 363.232 284.718C367.568 274.308 369.736 262.627 369.736 249.674C369.736 236.605 367.625 224.923 363.403 214.63C359.295 204.22 352.961 196.009 344.402 189.995C335.843 183.981 325.116 180.973 312.22 180.973H299.896Z" fill="white"/>
<path d="M142.369 364C128.937 364 117.255 360.838 107.322 354.513C97.3892 348.079 89.6575 339.519 84.1267 328.832C78.7089 318.037 76 306.096 76 293.01C76 279.924 78.7089 268.038 84.1267 257.352C89.6575 246.556 97.3892 237.941 107.322 231.507C117.255 225.073 128.937 221.857 142.369 221.857C151.286 221.857 159.187 223.219 166.072 225.946C172.957 228.563 178.544 231.725 182.833 235.433C187.122 239.032 189.718 242.358 190.621 245.411V135H242.091V360.298H191.129V338.319C188.985 342.354 185.486 346.389 180.632 350.423C175.778 354.349 170.079 357.566 163.532 360.074C156.985 362.692 149.931 364 142.369 364ZM158.114 324.907C164.322 324.907 169.853 323.543 174.707 320.817C179.673 318.091 183.567 314.329 186.389 309.531C189.21 304.623 190.621 299.117 190.621 293.01C190.621 286.903 189.21 281.451 186.389 276.653C183.567 271.746 179.673 267.929 174.707 265.203C169.853 262.367 164.322 260.95 158.114 260.95C152.132 260.95 146.714 262.367 141.861 265.203C137.12 267.929 133.339 271.746 130.517 276.653C127.808 281.451 126.454 286.903 126.454 293.01C126.454 299.117 127.808 304.623 130.517 309.531C133.339 314.329 137.12 318.091 141.861 320.817C146.714 323.543 152.132 324.907 158.114 324.907Z" fill="white"/>
<rect x="120.615" y="258.995" width="87" height="72.6098" fill="white"/>
<rect x="266.731" y="169.629" width="113.769" height="151.922" fill="white"/>
<rect x="190.885" y="135" width="51.3077" height="229" fill="white"/>
</g>
<defs>
<clipPath id="clip0_2011_25">
<rect width="348" height="229" fill="white" transform="translate(76 135)"/>
</clipPath>
</defs>
</svg>
