<svg width="312" height="205" viewBox="0 0 312 205" fill="none" xmlns="http://www.w3.org/2000/svg">
<path d="M155 0H215.928C237.516 0 255.369 4.40026 269.489 13.2007C283.71 21.8978 294.351 33.9596 301.411 49.3862C308.47 64.8132 312 82.4658 312 102.345C312 122.327 308.47 140.031 301.411 155.458C294.351 170.885 283.71 182.999 269.489 191.799C255.369 200.6 237.516 205 215.928 205H155V0ZM200.734 41.1553V163.845H211.784C223.346 163.845 232.912 161.205 240.483 155.924C248.054 150.54 253.733 143.241 257.518 134.027C261.406 124.708 263.35 114.251 263.35 102.655C263.35 90.956 261.457 80.4986 257.671 71.2842C253.989 61.9658 248.31 54.6147 240.636 49.2313C232.963 43.8472 223.346 41.1553 211.784 41.1553H200.734Z" fill="white"/>
<path d="M59.5031 205C47.4609 205 36.9869 202.169 28.0818 196.507C19.1766 190.748 12.2446 183.084 7.28605 173.518C2.42869 163.854 0 153.164 0 141.45C0 129.736 2.42869 119.095 7.28605 109.529C12.2446 99.8643 19.1766 92.1525 28.0818 86.3931C36.9869 80.6332 47.4609 77.7537 59.5031 77.7537C67.4974 77.7537 74.5812 78.9738 80.7541 81.4143C86.927 83.7569 91.936 86.5881 95.7816 89.9069C99.6268 93.1287 101.955 96.1062 102.764 98.8394V0H148.909V201.686H103.22V182.011C101.296 185.623 98.1595 189.234 93.808 192.846C89.4566 196.361 84.3464 199.241 78.477 201.486C72.6076 203.829 66.283 205 59.5031 205ZM73.6197 170.004C79.1856 170.004 84.144 168.783 88.4955 166.343C92.9481 163.902 96.4392 160.534 98.9692 156.239C101.499 151.846 102.764 146.917 102.764 141.45C102.764 135.983 101.499 131.102 98.9692 126.807C96.4392 122.414 92.9481 118.998 88.4955 116.557C84.144 114.019 79.1856 112.75 73.6197 112.75C68.2561 112.75 63.3989 114.019 59.0474 116.557C54.7971 118.998 51.4072 122.414 48.8772 126.807C46.4487 131.102 45.2344 135.983 45.2344 141.45C45.2344 146.917 46.4487 151.846 48.8772 156.239C51.4072 160.534 54.7971 163.902 59.0474 166.343C63.3989 168.783 68.2561 170.004 73.6197 170.004Z" fill="white"/>
<rect x="40" y="111" width="78" height="65" fill="white"/>
<rect x="171" y="31" width="102" height="136" fill="white"/>
<rect x="103" width="46" height="205" fill="white"/>
</svg>
